<?xml version="1.0" encoding="utf-8" standalone="no"?>
<!DOCTYPE svg PUBLIC "-//W3C//DTD SVG 1.1//EN"
  "http://www.w3.org/Graphics/SVG/1.1/DTD/svg11.dtd">
<!-- Created with matplotlib (https://matplotlib.org/) -->
<svg height="144pt" version="1.1" viewBox="0 0 216 144" width="216pt" xmlns="http://www.w3.org/2000/svg" xmlns:xlink="http://www.w3.org/1999/xlink">
 <metadata>
  <rdf:RDF xmlns:cc="http://creativecommons.org/ns#" xmlns:dc="http://purl.org/dc/elements/1.1/" xmlns:rdf="http://www.w3.org/1999/02/22-rdf-syntax-ns#">
   <cc:Work>
    <dc:type rdf:resource="http://purl.org/dc/dcmitype/StillImage"/>
    <dc:date>2021-01-27T19:31:45.547997</dc:date>
    <dc:format>image/svg+xml</dc:format>
    <dc:creator>
     <cc:Agent>
      <dc:title>Matplotlib v3.3.3, https://matplotlib.org/</dc:title>
     </cc:Agent>
    </dc:creator>
   </cc:Work>
  </rdf:RDF>
 </metadata>
 <defs>
  <style type="text/css">*{stroke-linecap:butt;stroke-linejoin:round;}</style>
 </defs>
 <g id="figure_1">
  <g id="patch_1">
   <path d="M 0 144 
L 216 144 
L 216 0 
L 0 0 
z
" style="fill:none;"/>
  </g>
  <g id="axes_1">
   <g id="PathCollection_1">
    <path clip-path="url(#p1ea504ba81)" d="M 98.776951 122.291079 
C 99.015549 122.291079 99.244406 122.196283 99.41312 122.027569 
C 99.581834 121.858855 99.67663 121.629998 99.67663 121.3914 
C 99.67663 121.152803 99.581834 120.923946 99.41312 120.755232 
C 99.244406 120.586518 99.015549 120.491722 98.776951 120.491722 
C 98.538354 120.491722 98.309496 120.586518 98.140783 120.755232 
C 97.972069 120.923946 97.877273 121.152803 97.877273 121.3914 
C 97.877273 121.629998 97.972069 121.858855 98.140783 122.027569 
C 98.309496 122.196283 98.538354 122.291079 98.776951 122.291079 
z
" style="fill:#32648e;fill-opacity:0.75;stroke:#32648e;stroke-opacity:0.75;"/>
    <path clip-path="url(#p1ea504ba81)" d="M 145.459407 64.379938 
C 148.665965 64.379938 151.741623 63.105959 154.009002 60.83858 
C 156.276381 58.5712 157.550361 55.495542 157.550361 52.288984 
C 157.550361 49.082425 156.276381 46.006767 154.009002 43.739388 
C 151.741623 41.472009 148.665965 40.19803 145.459407 40.19803 
C 142.252848 40.19803 139.17719 41.472009 136.909811 43.739388 
C 134.642432 46.006767 133.368452 49.082425 133.368452 52.288984 
C 133.368452 55.495542 134.642432 58.5712 136.909811 60.83858 
C 139.17719 63.105959 142.252848 64.379938 145.459407 64.379938 
z
" style="fill:#1f958b;fill-opacity:0.75;stroke:#1f958b;stroke-opacity:0.75;"/>
    <path clip-path="url(#p1ea504ba81)" d="M 34.609091 108.34657 
C 36.492366 108.34657 38.29876 107.598337 39.630437 106.266661 
C 40.962114 104.934984 41.710347 103.12859 41.710347 101.245314 
C 41.710347 99.362039 40.962114 97.555645 39.630437 96.223968 
C 38.29876 94.892292 36.492366 94.144059 34.609091 94.144059 
C 32.725816 94.144059 30.919421 94.892292 29.587745 96.223968 
C 28.256068 97.555645 27.507835 99.362039 27.507835 101.245314 
C 27.507835 103.12859 28.256068 104.934984 29.587745 106.266661 
C 30.919421 107.598337 32.725816 108.34657 34.609091 108.34657 
z
" style="fill:#b5de2b;fill-opacity:0.75;stroke:#b5de2b;stroke-opacity:0.75;"/>
    <path clip-path="url(#p1ea504ba81)" d="M 81.124659 98.136625 
C 81.798584 98.136625 82.444997 97.868872 82.921534 97.392335 
C 83.398071 96.915798 83.665824 96.269385 83.665824 95.59546 
C 83.665824 94.921535 83.398071 94.275121 82.921534 93.798584 
C 82.444997 93.322048 81.798584 93.054294 81.124659 93.054294 
C 80.450734 93.054294 79.80432 93.322048 79.327783 93.798584 
C 78.851247 94.275121 78.583493 94.921535 78.583493 95.59546 
C 78.583493 96.269385 78.851247 96.915798 79.327783 97.392335 
C 79.80432 97.868872 80.450734 98.136625 81.124659 98.136625 
z
" style="fill:#2f6c8e;fill-opacity:0.75;stroke:#2f6c8e;stroke-opacity:0.75;"/>
    <path clip-path="url(#p1ea504ba81)" d="M 57.179252 75.065344 
C 58.015722 75.065344 58.818044 74.733011 59.409517 74.141538 
C 60.000991 73.550064 60.333324 72.747742 60.333324 71.911272 
C 60.333324 71.074803 60.000991 70.27248 59.409517 69.681007 
C 58.818044 69.089533 58.015722 68.7572 57.179252 68.7572 
C 56.342782 68.7572 55.54046 69.089533 54.948986 69.681007 
C 54.357513 70.27248 54.02518 71.074803 54.02518 71.911272 
C 54.02518 72.747742 54.357513 73.550064 54.948986 74.141538 
C 55.54046 74.733011 56.342782 75.065344 57.179252 75.065344 
z
" style="fill:#c2df23;fill-opacity:0.75;stroke:#c2df23;stroke-opacity:0.75;"/>
    <path clip-path="url(#p1ea504ba81)" d="M 48.803676 127.126996 
C 51.269488 127.126996 53.634638 126.147319 55.37823 124.403727 
C 57.121822 122.660135 58.101499 120.294984 58.101499 117.829173 
C 58.101499 115.363361 57.121822 112.998211 55.37823 111.254619 
C 53.634638 109.511027 51.269488 108.53135 48.803676 108.53135 
C 46.337865 108.53135 43.972714 109.511027 42.229122 111.254619 
C 40.48553 112.998211 39.505853 115.363361 39.505853 117.829173 
C 39.505853 120.294984 40.48553 122.660135 42.229122 124.403727 
C 43.972714 126.147319 46.337865 127.126996 48.803676 127.126996 
z
" style="fill:#26ad81;fill-opacity:0.75;stroke:#26ad81;stroke-opacity:0.75;"/>
    <path clip-path="url(#p1ea504ba81)" d="M 63.259514 65.704721 
C 63.90737 65.704721 64.528779 65.447325 64.986883 64.989221 
C 65.444987 64.531118 65.702383 63.909709 65.702383 63.261852 
C 65.702383 62.613996 65.444987 61.992587 64.986883 61.534483 
C 64.528779 61.07638 63.90737 60.818984 63.259514 60.818984 
C 62.611658 60.818984 61.990249 61.07638 61.532145 61.534483 
C 61.074042 61.992587 60.816646 62.613996 60.816646 63.261852 
C 60.816646 63.909709 61.074042 64.531118 61.532145 64.989221 
C 61.990249 65.447325 62.611658 65.704721 63.259514 65.704721 
z
" style="fill:#440154;fill-opacity:0.75;stroke:#440154;stroke-opacity:0.75;"/>
    <path clip-path="url(#p1ea504ba81)" d="M 87.778071 115.3128 
C 89.705298 115.3128 91.553851 114.547104 92.916606 113.184349 
C 94.279362 111.821593 95.045057 109.97304 95.045057 108.045813 
C 95.045057 106.118586 94.279362 104.270033 92.916606 102.907278 
C 91.553851 101.544522 89.705298 100.778826 87.778071 100.778826 
C 85.850843 100.778826 84.002291 101.544522 82.639535 102.907278 
C 81.27678 104.270033 80.511084 106.118586 80.511084 108.045813 
C 80.511084 109.97304 81.27678 111.821593 82.639535 113.184349 
C 84.002291 114.547104 85.850843 115.3128 87.778071 115.3128 
z
" style="fill:#d2e21b;fill-opacity:0.75;stroke:#d2e21b;stroke-opacity:0.75;"/>
    <path clip-path="url(#p1ea504ba81)" d="M 95.659498 73.795635 
C 98.875152 73.795635 101.959534 72.518042 104.233345 70.244231 
C 106.507156 67.970421 107.784748 64.886039 107.784748 61.670385 
C 107.784748 58.454731 106.507156 55.370349 104.233345 53.096538 
C 101.959534 50.822728 98.875152 49.545135 95.659498 49.545135 
C 92.443845 49.545135 89.359463 50.822728 87.085652 53.096538 
C 84.811841 55.370349 83.534249 58.454731 83.534249 61.670385 
C 83.534249 64.886039 84.811841 67.970421 87.085652 70.244231 
C 89.359463 72.518042 92.443845 73.795635 95.659498 73.795635 
z
" style="fill:#3fbc73;fill-opacity:0.75;stroke:#3fbc73;stroke-opacity:0.75;"/>
    <path clip-path="url(#p1ea504ba81)" d="M 117.522848 60.681945 
C 120.330118 60.681945 123.022788 59.566605 125.007827 57.581565 
C 126.992867 55.596525 128.108208 52.903856 128.108208 50.096585 
C 128.108208 47.289315 126.992867 44.596645 125.007827 42.611606 
C 123.022788 40.626566 120.330118 39.511225 117.522848 39.511225 
C 114.715577 39.511225 112.022908 40.626566 110.037868 42.611606 
C 108.052828 44.596645 106.937488 47.289315 106.937488 50.096585 
C 106.937488 52.903856 108.052828 55.596525 110.037868 57.581565 
C 112.022908 59.566605 114.715577 60.681945 117.522848 60.681945 
z
" style="fill:#fde725;fill-opacity:0.75;stroke:#fde725;stroke-opacity:0.75;"/>
    <path clip-path="url(#p1ea504ba81)" d="M 99.111331 115.695751 
C 99.906435 115.695751 100.669082 115.379852 101.231305 114.817629 
C 101.793529 114.255405 102.109428 113.492758 102.109428 112.697654 
C 102.109428 111.902549 101.793529 111.139903 101.231305 110.577679 
C 100.669082 110.015455 99.906435 109.699557 99.111331 109.699557 
C 98.316226 109.699557 97.55358 110.015455 96.991356 110.577679 
C 96.429132 111.139903 96.113234 111.902549 96.113234 112.697654 
C 96.113234 113.492758 96.429132 114.255405 96.991356 114.817629 
C 97.55358 115.379852 98.316226 115.695751 99.111331 115.695751 
z
" style="fill:#453882;fill-opacity:0.75;stroke:#453882;stroke-opacity:0.75;"/>
    <path clip-path="url(#p1ea504ba81)" d="M 140.056262 86.206031 
C 141.693127 86.206031 143.263172 85.555697 144.420611 84.398258 
C 145.57805 83.240819 146.228383 81.670775 146.228383 80.033909 
C 146.228383 78.397044 145.57805 76.826999 144.420611 75.66956 
C 143.263172 74.512122 141.693127 73.861788 140.056262 73.861788 
C 138.419396 73.861788 136.849352 74.512122 135.691913 75.66956 
C 134.534474 76.826999 133.88414 78.397044 133.88414 80.033909 
C 133.88414 81.670775 134.534474 83.240819 135.691913 84.398258 
C 136.849352 85.555697 138.419396 86.206031 140.056262 86.206031 
z
" style="fill:#472d7b;fill-opacity:0.75;stroke:#472d7b;stroke-opacity:0.75;"/>
    <path clip-path="url(#p1ea504ba81)" d="M 66.059521 58.407491 
C 68.114698 58.407491 70.085977 57.590961 71.539207 56.137731 
C 72.992437 54.684501 73.808967 52.713222 73.808967 50.658045 
C 73.808967 48.602867 72.992437 46.631588 71.539207 45.178358 
C 70.085977 43.725129 68.114698 42.908598 66.059521 42.908598 
C 64.004344 42.908598 62.033065 43.725129 60.579835 45.178358 
C 59.126605 46.631588 58.310074 48.602867 58.310074 50.658045 
C 58.310074 52.713222 59.126605 54.684501 60.579835 56.137731 
C 62.033065 57.590961 64.004344 58.407491 66.059521 58.407491 
z
" style="fill:#d5e21a;fill-opacity:0.75;stroke:#d5e21a;stroke-opacity:0.75;"/>
    <path clip-path="url(#p1ea504ba81)" d="M 169.745927 90.383252 
C 172.49403 90.383252 175.129949 89.291419 177.073152 87.348216 
C 179.016355 85.405014 180.108188 82.769095 180.108188 80.020991 
C 180.108188 77.272887 179.016355 74.636969 177.073152 72.693766 
C 175.129949 70.750563 172.49403 69.65873 169.745927 69.65873 
C 166.997823 69.65873 164.361904 70.750563 162.418701 72.693766 
C 160.475499 74.636969 159.383665 77.272887 159.383665 80.020991 
C 159.383665 82.769095 160.475499 85.405014 162.418701 87.348216 
C 164.361904 89.291419 166.997823 90.383252 169.745927 90.383252 
z
" style="fill:#40bd72;fill-opacity:0.75;stroke:#40bd72;stroke-opacity:0.75;"/>
    <path clip-path="url(#p1ea504ba81)" d="M 38.806817 120.146286 
C 39.326587 120.146286 39.825138 119.93978 40.19267 119.572247 
C 40.560203 119.204715 40.76671 118.706163 40.76671 118.186394 
C 40.76671 117.666624 40.560203 117.168073 40.19267 116.800541 
C 39.825138 116.433008 39.326587 116.226501 38.806817 116.226501 
C 38.287048 116.226501 37.788496 116.433008 37.420964 116.800541 
C 37.053431 117.168073 36.846925 117.666624 36.846925 118.186394 
C 36.846925 118.706163 37.053431 119.204715 37.420964 119.572247 
C 37.788496 119.93978 38.287048 120.146286 38.806817 120.146286 
z
" style="fill:#481467;fill-opacity:0.75;stroke:#481467;stroke-opacity:0.75;"/>
    <path clip-path="url(#p1ea504ba81)" d="M 137.785726 67.499063 
C 137.847307 67.499063 137.906374 67.474597 137.949918 67.431053 
C 137.993462 67.387508 138.017929 67.328442 138.017929 67.266861 
C 138.017929 67.20528 137.993462 67.146213 137.949918 67.102669 
C 137.906374 67.059125 137.847307 67.034658 137.785726 67.034658 
C 137.724145 67.034658 137.665078 67.059125 137.621534 67.102669 
C 137.57799 67.146213 137.553524 67.20528 137.553524 67.266861 
C 137.553524 67.328442 137.57799 67.387508 137.621534 67.431053 
C 137.665078 67.474597 137.724145 67.499063 137.785726 67.499063 
z
" style="fill:#60ca60;fill-opacity:0.75;stroke:#60ca60;stroke-opacity:0.75;"/>
    <path clip-path="url(#p1ea504ba81)" d="M 98.820478 54.74032 
C 99.052604 54.74032 99.275254 54.648095 99.439392 54.483957 
C 99.60353 54.31982 99.695755 54.097169 99.695755 53.865043 
C 99.695755 53.632917 99.60353 53.410267 99.439392 53.246129 
C 99.275254 53.081991 99.052604 52.989767 98.820478 52.989767 
C 98.588352 52.989767 98.365702 53.081991 98.201564 53.246129 
C 98.037426 53.410267 97.945201 53.632917 97.945201 53.865043 
C 97.945201 54.097169 98.037426 54.31982 98.201564 54.483957 
C 98.365702 54.648095 98.588352 54.74032 98.820478 54.74032 
z
" style="fill:#5ec962;fill-opacity:0.75;stroke:#5ec962;stroke-opacity:0.75;"/>
    <path clip-path="url(#p1ea504ba81)" d="M 120.581592 75.547424 
C 122.193845 75.547424 123.740281 74.906869 124.880316 73.766834 
C 126.020351 72.626799 126.660906 71.080363 126.660906 69.46811 
C 126.660906 67.855857 126.020351 66.309421 124.880316 65.169386 
C 123.740281 64.029351 122.193845 63.388796 120.581592 63.388796 
C 118.969339 63.388796 117.422903 64.029351 116.282868 65.169386 
C 115.142833 66.309421 114.502278 67.855857 114.502278 69.46811 
C 114.502278 71.080363 115.142833 72.626799 116.282868 73.766834 
C 117.422903 74.906869 118.969339 75.547424 120.581592 75.547424 
z
" style="fill:#cde11d;fill-opacity:0.75;stroke:#cde11d;stroke-opacity:0.75;"/>
    <path clip-path="url(#p1ea504ba81)" d="M 56.198982 32.020521 
C 58.208988 32.020521 60.136939 31.221937 61.558228 29.800649 
C 62.979516 28.37936 63.7781 26.451409 63.7781 24.441403 
C 63.7781 22.431397 62.979516 20.503446 61.558228 19.082157 
C 60.136939 17.660868 58.208988 16.862285 56.198982 16.862285 
C 54.188976 16.862285 52.261025 17.660868 50.839736 19.082157 
C 49.418447 20.503446 48.619864 22.431397 48.619864 24.441403 
C 48.619864 26.451409 49.418447 28.37936 50.839736 29.800649 
C 52.261025 31.221937 54.188976 32.020521 56.198982 32.020521 
z
" style="fill:#48c16e;fill-opacity:0.75;stroke:#48c16e;stroke-opacity:0.75;"/>
    <path clip-path="url(#p1ea504ba81)" d="M 65.082051 69.069239 
C 66.967815 69.069239 68.776598 68.320016 70.110035 66.986579 
C 71.443472 65.653143 72.192694 63.84436 72.192694 61.958596 
C 72.192694 60.072831 71.443472 58.264049 70.110035 56.930612 
C 68.776598 55.597175 66.967815 54.847953 65.082051 54.847953 
C 63.196286 54.847953 61.387504 55.597175 60.054067 56.930612 
C 58.72063 58.264049 57.971408 60.072831 57.971408 61.958596 
C 57.971408 63.84436 58.72063 65.653143 60.054067 66.986579 
C 61.387504 68.320016 63.196286 69.069239 65.082051 69.069239 
z
" style="fill:#482979;fill-opacity:0.75;stroke:#482979;stroke-opacity:0.75;"/>
    <path clip-path="url(#p1ea504ba81)" d="M 157.83717 32.724825 
C 158.889239 32.724825 159.898359 32.306834 160.642284 31.562909 
C 161.386209 30.818984 161.8042 29.809864 161.8042 28.757795 
C 161.8042 27.705726 161.386209 26.696606 160.642284 25.952681 
C 159.898359 25.208756 158.889239 24.790765 157.83717 24.790765 
C 156.785102 24.790765 155.775981 25.208756 155.032056 25.952681 
C 154.288132 26.696606 153.87014 27.705726 153.87014 28.757795 
C 153.87014 29.809864 154.288132 30.818984 155.032056 31.562909 
C 155.775981 32.306834 156.785102 32.724825 157.83717 32.724825 
z
" style="fill:#440256;fill-opacity:0.75;stroke:#440256;stroke-opacity:0.75;"/>
    <path clip-path="url(#p1ea504ba81)" d="M 183.620359 121.373182 
C 186.897659 121.373182 190.041172 120.071096 192.358573 117.753695 
C 194.675975 115.436293 195.978061 112.292781 195.978061 109.01548 
C 195.978061 105.738179 194.675975 102.594667 192.358573 100.277265 
C 190.041172 97.959863 186.897659 96.657778 183.620359 96.657778 
C 180.343058 96.657778 177.199545 97.959863 174.882144 100.277265 
C 172.564742 102.594667 171.262657 105.738179 171.262657 109.01548 
C 171.262657 112.292781 172.564742 115.436293 174.882144 117.753695 
C 177.199545 120.071096 180.343058 121.373182 183.620359 121.373182 
z
" style="fill:#450559;fill-opacity:0.75;stroke:#450559;stroke-opacity:0.75;"/>
    <path clip-path="url(#p1ea504ba81)" d="M 82.83181 116.07351 
C 84.753688 116.07351 86.59711 115.30994 87.956083 113.950967 
C 89.315056 112.591994 90.078626 110.748573 90.078626 108.826695 
C 90.078626 106.904817 89.315056 105.061395 87.956083 103.702423 
C 86.59711 102.34345 84.753688 101.57988 82.83181 101.57988 
C 80.909933 101.57988 79.066511 102.34345 77.707538 103.702423 
C 76.348565 105.061395 75.584995 106.904817 75.584995 108.826695 
C 75.584995 110.748573 76.348565 112.591994 77.707538 113.950967 
C 79.066511 115.30994 80.909933 116.07351 82.83181 116.07351 
z
" style="fill:#46075a;fill-opacity:0.75;stroke:#46075a;stroke-opacity:0.75;"/>
    <path clip-path="url(#p1ea504ba81)" d="M 141.14953 43.570033 
C 142.409712 43.570033 143.618451 43.069357 144.509535 42.178274 
C 145.400618 41.28719 145.901294 40.078451 145.901294 38.818269 
C 145.901294 37.558086 145.400618 36.349347 144.509535 35.458264 
C 143.618451 34.56718 142.409712 34.066504 141.14953 34.066504 
C 139.889347 34.066504 138.680608 34.56718 137.789525 35.458264 
C 136.898441 36.349347 136.397765 37.558086 136.397765 38.818269 
C 136.397765 40.078451 136.898441 41.28719 137.789525 42.178274 
C 138.680608 43.069357 139.889347 43.570033 141.14953 43.570033 
z
" style="fill:#3d4e8a;fill-opacity:0.75;stroke:#3d4e8a;stroke-opacity:0.75;"/>
    <path clip-path="url(#p1ea504ba81)" d="M 169.47992 88.637051 
C 171.306334 88.637051 173.05819 87.911409 174.34966 86.619939 
C 175.64113 85.328469 176.366773 83.576613 176.366773 81.750199 
C 176.366773 79.923784 175.64113 78.171929 174.34966 76.880458 
C 173.05819 75.588988 171.306334 74.863346 169.47992 74.863346 
C 167.653505 74.863346 165.90165 75.588988 164.610179 76.880458 
C 163.318709 78.171929 162.593067 79.923784 162.593067 81.750199 
C 162.593067 83.576613 163.318709 85.328469 164.610179 86.619939 
C 165.90165 87.911409 167.653505 88.637051 169.47992 88.637051 
z
" style="fill:#a2da37;fill-opacity:0.75;stroke:#a2da37;stroke-opacity:0.75;"/>
    <path clip-path="url(#p1ea504ba81)" d="M 172.283847 115.410808 
C 174.75466 115.410808 177.124607 114.429143 178.871735 112.682015 
C 180.618863 110.934887 181.600528 108.56494 181.600528 106.094127 
C 181.600528 103.623315 180.618863 101.253368 178.871735 99.506239 
C 177.124607 97.759111 174.75466 96.777447 172.283847 96.777447 
C 169.813035 96.777447 167.443088 97.759111 165.695959 99.506239 
C 163.948831 101.253368 162.967167 103.623315 162.967167 106.094127 
C 162.967167 108.56494 163.948831 110.934887 165.695959 112.682015 
C 167.443088 114.429143 169.813035 115.410808 172.283847 115.410808 
z
" style="fill:#1f988b;fill-opacity:0.75;stroke:#1f988b;stroke-opacity:0.75;"/>
    <path clip-path="url(#p1ea504ba81)" d="M 47.680969 34.597189 
C 49.899502 34.597189 52.027469 33.715757 53.596208 32.147017 
C 55.164948 30.578277 56.046381 28.450311 56.046381 26.231778 
C 56.046381 24.013245 55.164948 21.885279 53.596208 20.316539 
C 52.027469 18.747799 49.899502 17.866367 47.680969 17.866367 
C 45.462436 17.866367 43.33447 18.747799 41.76573 20.316539 
C 40.196991 21.885279 39.315558 24.013245 39.315558 26.231778 
C 39.315558 28.450311 40.196991 30.578277 41.76573 32.147017 
C 43.33447 33.715757 45.462436 34.597189 47.680969 34.597189 
z
" style="fill:#1e9c89;fill-opacity:0.75;stroke:#1e9c89;stroke-opacity:0.75;"/>
    <path clip-path="url(#p1ea504ba81)" d="M 40.602559 90.291615 
C 41.480778 90.291615 42.323145 89.942695 42.944139 89.321701 
C 43.565134 88.700706 43.914054 87.858339 43.914054 86.980121 
C 43.914054 86.101902 43.565134 85.259535 42.944139 84.63854 
C 42.323145 84.017546 41.480778 83.668626 40.602559 83.668626 
C 39.724341 83.668626 38.881973 84.017546 38.260979 84.63854 
C 37.639985 85.259535 37.291065 86.101902 37.291065 86.980121 
C 37.291065 87.858339 37.639985 88.700706 38.260979 89.321701 
C 38.881973 89.942695 39.724341 90.291615 40.602559 90.291615 
z
" style="fill:#95d840;fill-opacity:0.75;stroke:#95d840;stroke-opacity:0.75;"/>
    <path clip-path="url(#p1ea504ba81)" d="M 60.730742 45.576104 
C 60.950644 45.576104 61.16157 45.488736 61.317064 45.333241 
C 61.472559 45.177747 61.559927 44.966821 61.559927 44.746919 
C 61.559927 44.527016 61.472559 44.316091 61.317064 44.160596 
C 61.16157 44.005102 60.950644 43.917733 60.730742 43.917733 
C 60.510839 43.917733 60.299914 44.005102 60.144419 44.160596 
C 59.988924 44.316091 59.901556 44.527016 59.901556 44.746919 
C 59.901556 44.966821 59.988924 45.177747 60.144419 45.333241 
C 60.299914 45.488736 60.510839 45.576104 60.730742 45.576104 
z
" style="fill:#482979;fill-opacity:0.75;stroke:#482979;stroke-opacity:0.75;"/>
    <path clip-path="url(#p1ea504ba81)" d="M 169.749785 51.973119 
C 170.976628 51.973119 172.153389 51.485689 173.020898 50.618179 
C 173.888407 49.75067 174.375837 48.57391 174.375837 47.347066 
C 174.375837 46.120223 173.888407 44.943462 173.020898 44.075953 
C 172.153389 43.208444 170.976628 42.721014 169.749785 42.721014 
C 168.522941 42.721014 167.346181 43.208444 166.478672 44.075953 
C 165.611162 44.943462 165.123732 46.120223 165.123732 47.347066 
C 165.123732 48.57391 165.611162 49.75067 166.478672 50.618179 
C 167.346181 51.485689 168.522941 51.973119 169.749785 51.973119 
z
" style="fill:#38588c;fill-opacity:0.75;stroke:#38588c;stroke-opacity:0.75;"/>
    <path clip-path="url(#p1ea504ba81)" d="M 49.728427 38.735005 
C 51.815965 38.735005 53.818284 37.905617 55.294396 36.429505 
C 56.770509 34.953393 57.599896 32.951074 57.599896 30.863536 
C 57.599896 28.775998 56.770509 26.773679 55.294396 25.297567 
C 53.818284 23.821455 51.815965 22.992067 49.728427 22.992067 
C 47.640889 22.992067 45.638571 23.821455 44.162458 25.297567 
C 42.686346 26.773679 41.856959 28.775998 41.856959 30.863536 
C 41.856959 32.951074 42.686346 34.953393 44.162458 36.429505 
C 45.638571 37.905617 47.640889 38.735005 49.728427 38.735005 
z
" style="fill:#20a486;fill-opacity:0.75;stroke:#20a486;stroke-opacity:0.75;"/>
    <path clip-path="url(#p1ea504ba81)" d="M 99.405785 60.696448 
C 100.10252 60.696448 100.770812 60.419633 101.263478 59.926966 
C 101.756144 59.4343 102.03296 58.766008 102.03296 58.069273 
C 102.03296 57.372538 101.756144 56.704246 101.263478 56.21158 
C 100.770812 55.718914 100.10252 55.442098 99.405785 55.442098 
C 98.70905 55.442098 98.040758 55.718914 97.548092 56.21158 
C 97.055426 56.704246 96.77861 57.372538 96.77861 58.069273 
C 96.77861 58.766008 97.055426 59.4343 97.548092 59.926966 
C 98.040758 60.419633 98.70905 60.696448 99.405785 60.696448 
z
" style="fill:#ece51b;fill-opacity:0.75;stroke:#ece51b;stroke-opacity:0.75;"/>
    <path clip-path="url(#p1ea504ba81)" d="M 182.023957 54.142706 
C 184.519371 54.142706 186.912915 53.151268 188.677439 51.386744 
C 190.441963 49.62222 191.433402 47.228676 191.433402 44.733262 
C 191.433402 42.237848 190.441963 39.844304 188.677439 38.07978 
C 186.912915 36.315256 184.519371 35.323818 182.023957 35.323818 
C 179.528543 35.323818 177.134999 36.315256 175.370475 38.07978 
C 173.605951 39.844304 172.614513 42.237848 172.614513 44.733262 
C 172.614513 47.228676 173.605951 49.62222 175.370475 51.386744 
C 177.134999 53.151268 179.528543 54.142706 182.023957 54.142706 
z
" style="fill:#1f9e89;fill-opacity:0.75;stroke:#1f9e89;stroke-opacity:0.75;"/>
    <path clip-path="url(#p1ea504ba81)" d="M 116.653011 87.693159 
C 116.873582 87.693159 117.085149 87.605526 117.241116 87.449558 
C 117.397084 87.293591 117.484717 87.082024 117.484717 86.861453 
C 117.484717 86.640882 117.397084 86.429316 117.241116 86.273348 
C 117.085149 86.117381 116.873582 86.029747 116.653011 86.029747 
C 116.43244 86.029747 116.220874 86.117381 116.064906 86.273348 
C 115.908939 86.429316 115.821305 86.640882 115.821305 86.861453 
C 115.821305 87.082024 115.908939 87.293591 116.064906 87.449558 
C 116.220874 87.605526 116.43244 87.693159 116.653011 87.693159 
z
" style="fill:#440256;fill-opacity:0.75;stroke:#440256;stroke-opacity:0.75;"/>
    <path clip-path="url(#p1ea504ba81)" d="M 141.080961 98.390311 
C 141.943915 98.390311 142.771642 98.047456 143.381843 97.437254 
C 143.992044 96.827053 144.334899 95.999327 144.334899 95.136372 
C 144.334899 94.273418 143.992044 93.445691 143.381843 92.83549 
C 142.771642 92.225289 141.943915 91.882434 141.080961 91.882434 
C 140.218006 91.882434 139.39028 92.225289 138.780079 92.83549 
C 138.169877 93.445691 137.827022 94.273418 137.827022 95.136372 
C 137.827022 95.999327 138.169877 96.827053 138.780079 97.437254 
C 139.39028 98.047456 140.218006 98.390311 141.080961 98.390311 
z
" style="fill:#7ad151;fill-opacity:0.75;stroke:#7ad151;stroke-opacity:0.75;"/>
    <path clip-path="url(#p1ea504ba81)" d="M 83.153714 39.604759 
C 85.821507 39.604759 88.380392 38.544834 90.266807 36.65842 
C 92.153221 34.772006 93.213146 32.21312 93.213146 29.545327 
C 93.213146 26.877535 92.153221 24.318649 90.266807 22.432235 
C 88.380392 20.54582 85.821507 19.485895 83.153714 19.485895 
C 80.485921 19.485895 77.927036 20.54582 76.040621 22.432235 
C 74.154207 24.318649 73.094282 26.877535 73.094282 29.545327 
C 73.094282 32.21312 74.154207 34.772006 76.040621 36.65842 
C 77.927036 38.544834 80.485921 39.604759 83.153714 39.604759 
z
" style="fill:#3e4a89;fill-opacity:0.75;stroke:#3e4a89;stroke-opacity:0.75;"/>
    <path clip-path="url(#p1ea504ba81)" d="M 140.253491 80.981159 
C 140.894733 80.981159 141.509798 80.726391 141.963225 80.272964 
C 142.416651 79.819538 142.67142 79.204473 142.67142 78.563231 
C 142.67142 77.921988 142.416651 77.306924 141.963225 76.853497 
C 141.509798 76.40007 140.894733 76.145302 140.253491 76.145302 
C 139.612249 76.145302 138.997184 76.40007 138.543757 76.853497 
C 138.090331 77.306924 137.835563 77.921988 137.835563 78.563231 
C 137.835563 79.204473 138.090331 79.819538 138.543757 80.272964 
C 138.997184 80.726391 139.612249 80.981159 140.253491 80.981159 
z
" style="fill:#7fd34e;fill-opacity:0.75;stroke:#7fd34e;stroke-opacity:0.75;"/>
    <path clip-path="url(#p1ea504ba81)" d="M 163.051942 30.313261 
C 165.171779 30.313261 167.205079 29.471041 168.704031 27.972089 
C 170.202982 26.473138 171.045203 24.439838 171.045203 22.32 
C 171.045203 20.200162 170.202982 18.166862 168.704031 16.667911 
C 167.205079 15.168959 165.171779 14.326739 163.051942 14.326739 
C 160.932104 14.326739 158.898804 15.168959 157.399852 16.667911 
C 155.900901 18.166862 155.058681 20.200162 155.058681 22.32 
C 155.058681 24.439838 155.900901 26.473138 157.399852 27.972089 
C 158.898804 29.471041 160.932104 30.313261 163.051942 30.313261 
z
" style="fill:#2c738e;fill-opacity:0.75;stroke:#2c738e;stroke-opacity:0.75;"/>
    <path clip-path="url(#p1ea504ba81)" d="M 37.406306 60.460427 
C 39.145609 60.460427 40.813908 59.769395 42.04378 58.539522 
C 43.273653 57.30965 43.964685 55.64135 43.964685 53.902048 
C 43.964685 52.162745 43.273653 50.494446 42.04378 49.264574 
C 40.813908 48.034701 39.145609 47.343669 37.406306 47.343669 
C 35.667004 47.343669 33.998705 48.034701 32.768832 49.264574 
C 31.53896 50.494446 30.847927 52.162745 30.847927 53.902048 
C 30.847927 55.64135 31.53896 57.30965 32.768832 58.539522 
C 33.998705 59.769395 35.667004 60.460427 37.406306 60.460427 
z
" style="fill:#a5db36;fill-opacity:0.75;stroke:#a5db36;stroke-opacity:0.75;"/>
    <path clip-path="url(#p1ea504ba81)" d="M 150.04909 69.836479 
C 153.114864 69.836479 156.055485 68.618434 158.223315 66.450604 
C 160.391145 64.282774 161.60919 61.342154 161.60919 58.276379 
C 161.60919 55.210605 160.391145 52.269984 158.223315 50.102154 
C 156.055485 47.934325 153.114864 46.71628 150.04909 46.71628 
C 146.983316 46.71628 144.042695 47.934325 141.874865 50.102154 
C 139.707036 52.269984 138.488991 55.210605 138.488991 58.276379 
C 138.488991 61.342154 139.707036 64.282774 141.874865 66.450604 
C 144.042695 68.618434 146.983316 69.836479 150.04909 69.836479 
z
" style="fill:#5ac864;fill-opacity:0.75;stroke:#5ac864;stroke-opacity:0.75;"/>
    <path clip-path="url(#p1ea504ba81)" d="M 186.790909 114.68832 
C 187.663748 114.68832 188.500955 114.341537 189.118146 113.724347 
C 189.735336 113.107156 190.082119 112.269949 190.082119 111.39711 
C 190.082119 110.524271 189.735336 109.687064 189.118146 109.069873 
C 188.500955 108.452683 187.663748 108.1059 186.790909 108.1059 
C 185.91807 108.1059 185.080863 108.452683 184.463672 109.069873 
C 183.846482 109.687064 183.499699 110.524271 183.499699 111.39711 
C 183.499699 112.269949 183.846482 113.107156 184.463672 113.724347 
C 185.080863 114.341537 185.91807 114.68832 186.790909 114.68832 
z
" style="fill:#1e9d89;fill-opacity:0.75;stroke:#1e9d89;stroke-opacity:0.75;"/>
    <path clip-path="url(#p1ea504ba81)" d="M 149.744547 24.753046 
C 149.963211 24.753046 150.172948 24.66617 150.327566 24.511552 
C 150.482185 24.356933 150.569061 24.147196 150.569061 23.928532 
C 150.569061 23.709869 150.482185 23.500132 150.327566 23.345513 
C 150.172948 23.190895 149.963211 23.104019 149.744547 23.104019 
C 149.525883 23.104019 149.316146 23.190895 149.161528 23.345513 
C 149.006909 23.500132 148.920033 23.709869 148.920033 23.928532 
C 148.920033 24.147196 149.006909 24.356933 149.161528 24.511552 
C 149.316146 24.66617 149.525883 24.753046 149.744547 24.753046 
z
" style="fill:#472d7b;fill-opacity:0.75;stroke:#472d7b;stroke-opacity:0.75;"/>
    <path clip-path="url(#p1ea504ba81)" d="M 77.755703 85.465048 
C 80.192475 85.465048 82.529771 84.496908 84.25283 82.77385 
C 85.975888 81.050791 86.944027 78.713495 86.944027 76.276723 
C 86.944027 73.839951 85.975888 71.502654 84.25283 69.779596 
C 82.529771 68.056538 80.192475 67.088398 77.755703 67.088398 
C 75.318931 67.088398 72.981634 68.056538 71.258576 69.779596 
C 69.535518 71.502654 68.567378 73.839951 68.567378 76.276723 
C 68.567378 78.713495 69.535518 81.050791 71.258576 82.77385 
C 72.981634 84.496908 75.318931 85.465048 77.755703 85.465048 
z
" style="fill:#471365;fill-opacity:0.75;stroke:#471365;stroke-opacity:0.75;"/>
    <path clip-path="url(#p1ea504ba81)" d="M 156.072511 72.466435 
C 158.632311 72.466435 161.087613 71.449416 162.897665 69.639364 
C 164.707717 67.829312 165.724736 65.37401 165.724736 62.81421 
C 165.724736 60.25441 164.707717 57.799108 162.897665 55.989056 
C 161.087613 54.179004 158.632311 53.161984 156.072511 53.161984 
C 153.512711 53.161984 151.057409 54.179004 149.247357 55.989056 
C 147.437305 57.799108 146.420286 60.25441 146.420286 62.81421 
C 146.420286 65.37401 147.437305 67.829312 149.247357 69.639364 
C 151.057409 71.449416 153.512711 72.466435 156.072511 72.466435 
z
" style="fill:#482878;fill-opacity:0.75;stroke:#482878;stroke-opacity:0.75;"/>
    <path clip-path="url(#p1ea504ba81)" d="M 50.4794 92.001849 
C 53.488844 92.001849 56.375435 90.806184 58.503434 88.678185 
C 60.631433 86.550187 61.827098 83.663596 61.827098 80.654151 
C 61.827098 77.644706 60.631433 74.758116 58.503434 72.630117 
C 56.375435 70.502118 53.488844 69.306453 50.4794 69.306453 
C 47.469955 69.306453 44.583364 70.502118 42.455365 72.630117 
C 40.327367 74.758116 39.131701 77.644706 39.131701 80.654151 
C 39.131701 83.663596 40.327367 86.550187 42.455365 88.678185 
C 44.583364 90.806184 47.469955 92.001849 50.4794 92.001849 
z
" style="fill:#470d60;fill-opacity:0.75;stroke:#470d60;stroke-opacity:0.75;"/>
    <path clip-path="url(#p1ea504ba81)" d="M 103.528506 110.233545 
C 106.61803 110.233545 109.58143 109.006065 111.766053 106.821442 
C 113.950676 104.636818 115.178157 101.673418 115.178157 98.583894 
C 115.178157 95.494371 113.950676 92.53097 111.766053 90.346347 
C 109.58143 88.161724 106.61803 86.934244 103.528506 86.934244 
C 100.438983 86.934244 97.475582 88.161724 95.290959 90.346347 
C 93.106336 92.53097 91.878855 95.494371 91.878855 98.583894 
C 91.878855 101.673418 93.106336 104.636818 95.290959 106.821442 
C 97.475582 109.006065 100.438983 110.233545 103.528506 110.233545 
z
" style="fill:#482374;fill-opacity:0.75;stroke:#482374;stroke-opacity:0.75;"/>
    <path clip-path="url(#p1ea504ba81)" d="M 174.436923 28.934536 
C 174.483173 28.934536 174.527535 28.916161 174.560239 28.883457 
C 174.592943 28.850753 174.611318 28.806391 174.611318 28.760141 
C 174.611318 28.713891 174.592943 28.66953 174.560239 28.636826 
C 174.527535 28.604122 174.483173 28.585747 174.436923 28.585747 
C 174.390673 28.585747 174.346311 28.604122 174.313608 28.636826 
C 174.280904 28.66953 174.262529 28.713891 174.262529 28.760141 
C 174.262529 28.806391 174.280904 28.850753 174.313608 28.883457 
C 174.346311 28.916161 174.390673 28.934536 174.436923 28.934536 
z
" style="fill:#3f4889;fill-opacity:0.75;stroke:#3f4889;stroke-opacity:0.75;"/>
    <path clip-path="url(#p1ea504ba81)" d="M 79.782772 66.237287 
C 80.559692 66.237287 81.304895 65.928613 81.85426 65.379248 
C 82.403625 64.829883 82.712299 64.08468 82.712299 63.30776 
C 82.712299 62.530841 82.403625 61.785638 81.85426 61.236273 
C 81.304895 60.686908 80.559692 60.378234 79.782772 60.378234 
C 79.005853 60.378234 78.26065 60.686908 77.711285 61.236273 
C 77.16192 61.785638 76.853246 62.530841 76.853246 63.30776 
C 76.853246 64.08468 77.16192 64.829883 77.711285 65.379248 
C 78.26065 65.928613 79.005853 66.237287 79.782772 66.237287 
z
" style="fill:#4ac16d;fill-opacity:0.75;stroke:#4ac16d;stroke-opacity:0.75;"/>
    <path clip-path="url(#p1ea504ba81)" d="M 78.884099 130.829729 
C 80.928743 130.829729 82.889919 130.017384 84.335701 128.571602 
C 85.781482 127.12582 86.593828 125.164644 86.593828 123.12 
C 86.593828 121.075356 85.781482 119.11418 84.335701 117.668398 
C 82.889919 116.222616 80.928743 115.410271 78.884099 115.410271 
C 76.839455 115.410271 74.878278 116.222616 73.432497 117.668398 
C 71.986715 119.11418 71.174369 121.075356 71.174369 123.12 
C 71.174369 125.164644 71.986715 127.12582 73.432497 128.571602 
C 74.878278 130.017384 76.839455 130.829729 78.884099 130.829729 
z
" style="fill:#1f9e89;fill-opacity:0.75;stroke:#1f9e89;stroke-opacity:0.75;"/>
    <path clip-path="url(#p1ea504ba81)" d="M 54.604686 70.61594 
C 57.750712 70.61594 60.768308 69.36601 62.992884 67.141434 
C 65.21746 64.916858 66.46739 61.899261 66.46739 58.753236 
C 66.46739 55.60721 65.21746 52.589613 62.992884 50.365037 
C 60.768308 48.140461 57.750712 46.890532 54.604686 46.890532 
C 51.45866 46.890532 48.441064 48.140461 46.216487 50.365037 
C 43.991911 52.589613 42.741982 55.60721 42.741982 58.753236 
C 42.741982 61.899261 43.991911 64.916858 46.216487 67.141434 
C 48.441064 69.36601 51.45866 70.61594 54.604686 70.61594 
z
" style="fill:#440154;fill-opacity:0.75;stroke:#440154;stroke-opacity:0.75;"/>
   </g>
  </g>
 </g>
 <defs>
  <clipPath id="p1ea504ba81">
   <rect height="110.88" width="167.4" x="27" y="17.28"/>
  </clipPath>
 </defs>
</svg>
